<?xml version="1.0" standalone="no"?>
<!DOCTYPE svg PUBLIC "-//W3C//DTD SVG 20010904//EN"
 "http://www.w3.org/TR/2001/REC-SVG-20010904/DTD/svg10.dtd">
<svg version="1.0" xmlns="http://www.w3.org/2000/svg"
 width="28px" height="28px" viewBox="0 0 512.000000 512.000000"
 preserveAspectRatio="xMidYMid meet">
<g transform="translate(0.000000,512.000000) scale(0.100000,-0.100000)"
fill="#000000" stroke="none">
<path d="M2350 5106 c-154 -33 -301 -98 -420 -187 -106 -80 -1706 -1687 -1755
-1764 -85 -130 -143 -277 -165 -417 -18 -112 -8 -351 20 -453 27 -104 114
-282 179 -368 29 -37 55 -67 59 -67 4 0 297 290 652 645 l645 645 -4 72 c-4
101 24 175 93 244 202 201 546 58 546 -226 0 -185 -151 -327 -337 -318 l-73 3
-647 -647 -648 -648 680 -681 c374 -374 705 -700 735 -723 108 -84 241 -149
380 -187 109 -30 357 -38 471 -14 163 32 309 96 428 185 36 27 375 359 754
737 l687 688 -314 314 -314 314 -69 -2 c-97 -3 -171 26 -239 93 -126 127 -126
325 0 452 206 206 558 52 544 -238 l-3 -68 316 -316 316 -315 39 53 c87 116
155 258 190 398 15 60 19 112 19 255 0 158 -3 190 -24 265 -27 97 -92 242
-147 327 -44 68 -1643 1677 -1744 1755 -82 63 -261 151 -365 179 -103 27 -383
36 -485 15z m1007 -1568 c119 -44 203 -168 203 -298 0 -131 -84 -254 -205
-299 -49 -19 -74 -22 -137 -19 l-77 5 -133 -134 -133 -133 3 -78 c5 -105 -22
-177 -92 -248 -127 -126 -325 -126 -452 0 -206 207 -54 554 239 545 l68 -2
142 141 142 142 -3 68 c-11 230 216 392 435 310z"/>
<path d="M3170 3378 c-48 -25 -90 -89 -90 -138 0 -49 42 -113 90 -137 24 -13
56 -23 70 -23 14 0 46 10 70 23 48 24 90 88 90 137 0 49 -42 113 -90 138 -24
12 -56 22 -70 22 -14 0 -46 -10 -70 -22z"/>
<path d="M2490 2698 c-48 -25 -90 -89 -90 -138 0 -49 42 -113 90 -137 24 -13
56 -23 70 -23 14 0 46 10 70 23 48 24 90 88 90 137 0 49 -42 113 -90 138 -24
12 -56 22 -70 22 -14 0 -46 -10 -70 -22z"/>
<path d="M1810 3368 c-48 -25 -90 -89 -90 -138 0 -14 10 -46 23 -70 24 -48 88
-90 137 -90 14 0 46 10 70 23 48 24 90 88 90 137 0 14 -10 46 -22 70 -25 48
-89 90 -138 90 -14 0 -46 -10 -70 -22z"/>
<path d="M3850 2708 c-48 -25 -90 -89 -90 -138 0 -14 10 -46 23 -70 24 -48 88
-90 137 -90 14 0 46 10 70 23 48 24 90 88 90 137 0 49 -42 113 -90 138 -24 12
-56 22 -70 22 -14 0 -46 -10 -70 -22z"/>
</g>
</svg>
