<?xml version="1.0" encoding="UTF-8"?>
<svg xmlns="http://www.w3.org/2000/svg" xmlns:xlink="http://www.w3.org/1999/xlink" width="18pt" height="18pt" viewBox="0 0 18 18" version="1.1">
<g id="surface1">
<path style=" stroke:none;fill-rule:nonzero;fill:rgb(100%,100%,100%);fill-opacity:1;" d="M 9 0 C 4.039062 0 0 4.039062 0 9 C 0 13.960938 4.039062 18 9 18 C 13.960938 18 18 13.960938 18 9 C 18 4.039062 13.960938 0 9 0 Z M 8.25 2.625 C 8.25 2.417969 8.417969 2.25 8.625 2.25 L 9.375 2.25 C 9.582031 2.25 9.75 2.417969 9.75 2.625 L 9.75 8.625 C 9.75 8.832031 9.582031 9 9.375 9 L 8.625 9 C 8.417969 9 8.25 8.832031 8.25 8.625 Z M 7.941406 14.144531 C 5.882812 13.742188 4.230469 12.070312 3.84375 10.007812 C 3.359375 7.417969 4.792969 5.082031 6.964844 4.164062 C 7.21875 4.054688 7.5 4.230469 7.5 4.503906 L 7.5 5.339844 C 7.5 5.480469 7.417969 5.601562 7.292969 5.667969 C 6.082031 6.289062 5.25 7.546875 5.25 9 C 5.25 11.332031 7.390625 13.175781 9.808594 12.664062 C 11.273438 12.355469 12.4375 11.140625 12.691406 9.664062 C 12.992188 7.941406 12.101562 6.382812 10.710938 5.667969 C 10.582031 5.601562 10.5 5.476562 10.5 5.335938 L 10.5 4.507812 C 10.5 4.234375 10.78125 4.054688 11.03125 4.164062 C 12.921875 4.957031 14.25 6.824219 14.25 9 C 14.25 12.242188 11.300781 14.804688 7.941406 14.144531 Z M 7.941406 14.144531 "/>
</g>
</svg>
